# xmcd
#
# Track frame offsets: 
#        183
#        18563
#        35398
#        45530
#        57493
#        72335
#        87130
#        101115
#        114743
#        129930
#        142325
#        161293
#        174485
#        184660
#
# Disc length: 2609 seconds
#
# Revision: 2
# Processed by: cddbd v1.5.2PL0 Copyright (c) Steve Scherf et al.
# Submitted via: ExactAudioCopy v1.0b3
#
DISCID=c10a2f0e
DTITLE=Jair Rodrigues - Minha Historia
DYEAR=1900
DGENRE=
TTITLE0=Disparada
TTITLE1=Tristeza
TTITLE2=Deixa Isso Pra La
TTITLE3=Carinhoso
TTITLE4=O Conde
TTITLE5=Casa De Bamba
TTITLE6=Triste Madrugada
TTITLE7=Ronda
TTITLE8=Chão De Estrelas
TTITLE9=Mascara Negra
TTITLE10=Io E Te
TTITLE11=Foi Um Rio Que Passou Em Minha Vida
TTITLE12=Boa- Noite Amor
TTITLE13=Ave-Maria 
EXTD=
EXTT0=
EXTT1=
EXTT2=
EXTT3=
EXTT4=
EXTT5=
EXTT6=
EXTT7=
EXTT8=
EXTT9=
EXTT10=
EXTT11=
EXTT12=
EXTT13=
PLAYORDER=
